<!DOCTYPE svg PUBLIC "-//W3C//DTD SVG 1.1//EN" "http://www.w3.org/Graphics/SVG/1.1/DTD/svg11.dtd">
<!-- Uploaded to: SVG Repo, www.svgrepo.com, Transformed by: SVG Repo Mixer Tools -->
<svg width="191px" height="191px" viewBox="0 0 32.00 32.00" xmlns="http://www.w3.org/2000/svg" fill="#ffffff" stroke="#ffffff" stroke-width="0.00032">
<g id="SVGRepo_bgCarrier" stroke-width="0"/>
<g id="SVGRepo_tracerCarrier" stroke-linecap="round" stroke-linejoin="round" stroke="#CCCCCC" stroke-width="0.576"/>
<g id="SVGRepo_iconCarrier">
<path d="m16 0c8.836556 0 16 7.163444 16 16s-7.163444 16-16 16-16-7.163444-16-16 7.163444-16 16-16zm-4.9728932 13.4028932c-.3905243-.3905243-1.0236893-.3905243-1.41421358 0-.39052429.3905243-.39052429 1.0236893 0 1.4142136l5.65685428 5.6568542c.1802419.180242.4121707.2772954.6480754.2911602h.1612085c.2359046-.0138648.4678334-.1109182.6480754-.2911602l5.6568542-5.6568542c.3905243-.3905243.3905243-1.0236893 0-1.4142136s-1.0236892-.3905243-1.4142135 0l-4.9717475 4.971228z" fill="#fffff" fill-rule="evenodd"/>
</g>
</svg>